Force Plate Walk 10
version=1
nRows=49
nColumns=19
inDegrees=yes
endheader
time	ground_force1_vx	ground_force1_vy	ground_force1_vz	ground_force1_px	ground_force1_py	ground_force1_pz	ground_torque1_x	ground_torque1_y	ground_torque1_z	ground_force2_vx	ground_force2_vy	ground_force2_vz	ground_force2_px	ground_force2_py	ground_force2_pz	ground_torque2_x	ground_torque2_y	ground_torque2_z
4.505000	-0.000000	-0.000000	0.000000	0.765500	0.000000	-0.232000	0.000000	0.000000	0.000000	114.176071	542.652344	-38.082661	0.033237	0.000000	-0.141726	0.000001	0.695689	-0.000001	
4.506000	-0.000000	-0.000000	0.000000	0.765500	0.000000	-0.232000	0.000000	0.000000	0.000000	112.849762	540.033081	-37.866287	0.032716	0.000000	-0.141554	0.000003	0.700702	0.000003	
4.507000	-0.000000	-0.000000	0.000000	0.765500	0.000000	-0.232000	0.000000	0.000000	0.000000	112.020042	537.568237	-37.856571	0.032345	0.000000	-0.141468	0.000008	0.668045	0.000003	
4.508000	-0.000000	-0.000000	0.000000	0.765500	0.000000	-0.232000	0.000000	0.000000	0.000000	111.612663	537.174011	-37.848713	0.032955	0.000000	-0.141995	0.000007	0.611891	-0.000003	
4.509000	-0.000000	-0.000000	0.000000	0.765500	0.000000	-0.232000	0.000000	0.000000	0.000000	110.753960	534.203125	-37.719269	0.032392	0.000000	-0.141693	0.000009	0.592594	-0.000001	
4.510000	-0.000000	-0.000000	0.000000	0.765500	0.000000	-0.232000	0.000000	0.000000	0.000000	110.111885	531.815796	-37.677708	0.032053	0.000000	-0.141276	-0.000001	0.669352	-0.000002	
4.511000	-0.000000	-0.000000	0.000000	0.765500	0.000000	-0.232000	0.000000	0.000000	0.000000	110.100731	530.603699	-37.789886	0.032216	0.000000	-0.141590	0.000004	0.720160	0.000002	
4.512000	-0.000000	-0.000000	0.000000	0.765500	0.000000	-0.232000	0.000000	0.000000	0.000000	109.389519	528.484070	-37.650955	0.032077	0.000000	-0.141455	0.000007	0.725256	-0.000001	
4.513000	-0.000000	-0.000000	0.000000	0.765500	0.000000	-0.232000	0.000000	0.000000	0.000000	107.962776	526.731995	-37.382641	0.032470	0.000000	-0.141370	0.000004	0.717059	-0.000003	
4.514000	-0.000000	-0.000000	0.000000	0.765500	0.000000	-0.232000	0.000000	0.000000	0.000000	107.491547	523.757996	-37.402893	0.032167	0.000000	-0.141431	0.000009	0.707852	0.000003	
4.515000	-0.000000	-0.000000	0.000000	0.765500	0.000000	-0.232000	0.000000	0.000000	0.000000	107.479240	522.646423	-37.703388	0.032559	0.000000	-0.141659	0.000002	0.685262	0.000001	
4.516000	-0.000000	-0.000000	0.000000	0.765500	0.000000	-0.232000	0.000000	0.000000	0.000000	106.794418	520.063660	-37.542065	0.032183	0.000000	-0.141557	0.000005	0.707049	0.000007	
4.517000	-0.000000	-0.000000	0.000000	0.765500	0.000000	-0.232000	0.000000	0.000000	0.000000	105.823891	516.849548	-37.287418	0.031595	0.000000	-0.141473	0.000010	0.745408	0.000006	
4.518000	-0.000000	-0.000000	0.000000	0.765500	0.000000	-0.232000	0.000000	0.000000	0.000000	105.321198	514.084534	-37.072845	0.031310	0.000000	-0.141284	0.000005	0.799344	0.000001	
4.519000	-0.000000	-0.000000	0.000000	0.765500	0.000000	-0.232000	0.000000	0.000000	0.000000	104.853577	511.966461	-37.092632	0.030992	0.000000	-0.141438	0.000009	0.819905	0.000001	
4.520000	-0.000000	-0.000000	0.000000	0.765500	0.000000	-0.232000	0.000000	0.000000	0.000000	104.040787	509.843842	-37.499954	0.030927	0.000000	-0.141646	0.000010	0.666317	-0.000001	
4.521000	-0.000000	-0.000000	0.000000	0.765500	0.000000	-0.232000	0.000000	0.000000	0.000000	103.322601	507.091278	-37.336769	0.030765	0.000000	-0.141497	0.000006	0.673484	-0.000001	
4.522000	-0.000000	-0.000000	0.000000	0.765500	0.000000	-0.232000	0.000000	0.000000	0.000000	102.794121	504.141113	-37.075954	0.030665	0.000000	-0.141126	0.000003	0.747653	-0.000003	
4.523000	-0.000000	-0.000000	0.000000	0.765500	0.000000	-0.232000	0.000000	0.000000	0.000000	101.678871	501.852783	-37.034191	0.030742	0.000000	-0.140936	0.000001	0.762705	-0.000005	
4.524000	-0.000000	-0.000000	0.000000	0.765500	0.000000	-0.232000	0.000000	0.000000	0.000000	100.719864	498.602539	-36.718449	0.030027	0.000000	-0.141042	0.000000	0.738175	-0.000002	
4.525000	-0.000000	-0.000000	0.000000	0.765500	0.000000	-0.232000	0.000000	0.000000	0.000000	100.215500	495.862793	-36.938805	0.029746	0.000000	-0.141011	0.000007	0.670086	0.000004	
4.526000	-0.000000	-0.000000	0.000000	0.765500	0.000000	-0.232000	0.000000	0.000000	0.000000	99.468239	494.694061	-37.196289	0.030613	0.000000	-0.141067	-0.000002	0.638995	0.000000	
4.527000	-0.000000	-0.000000	0.000000	0.765500	0.000000	-0.232000	0.000000	0.000000	0.000000	98.635635	492.619690	-36.983635	0.030601	0.000000	-0.141186	0.000009	0.726325	-0.000004	
4.528000	-0.000000	-0.000000	0.000000	0.765500	0.000000	-0.232000	0.000000	0.000000	0.000000	98.177002	488.900116	-36.770348	0.029982	0.000000	-0.141166	0.000001	0.739807	-0.000002	
4.529000	-0.000000	-0.000000	0.000000	0.765500	0.000000	-0.232000	0.000000	0.000000	0.000000	97.925034	485.239594	-36.874424	0.029574	0.000000	-0.141078	-0.000002	0.649970	0.000002	
4.530000	-0.000000	-0.000000	0.000000	0.765500	0.000000	-0.232000	0.000000	0.000000	0.000000	97.177254	483.981140	-36.980370	0.030288	0.000000	-0.141425	0.000004	0.582344	0.000001	
4.531000	-0.000000	-0.000000	0.000000	0.765500	0.000000	-0.232000	0.000000	0.000000	0.000000	96.648849	482.616791	-36.810032	0.030870	0.000000	-0.141801	0.000009	0.597223	-0.000003	
4.532000	-0.000000	-0.000000	0.000000	0.765500	0.000000	-0.232000	0.000000	0.000000	0.000000	96.284126	479.771301	-36.689785	0.030845	0.000000	-0.141699	0.000001	0.658249	-0.000001	
4.533000	-0.000000	-0.000000	0.000000	0.765500	0.000000	-0.232000	0.000000	0.000000	0.000000	95.396500	476.261749	-36.954014	0.030401	0.000000	-0.141466	0.000001	0.600250	-0.000002	
4.534000	-0.000000	-0.000000	0.000000	0.765500	0.000000	-0.232000	0.000000	0.000000	0.000000	94.575188	473.931854	-37.168137	0.030501	0.000000	-0.141559	-0.000003	0.541450	-0.000001	
4.535000	-0.000000	-0.000000	0.000000	0.765500	0.000000	-0.232000	0.000000	0.000000	0.000000	94.124115	471.197021	-36.907745	0.030636	0.000000	-0.141380	0.000010	0.592772	-0.000001	
4.536000	-0.000000	-0.000000	0.000000	0.765500	0.000000	-0.232000	0.000000	0.000000	0.000000	93.189835	468.253662	-36.731045	0.030616	0.000000	-0.141524	-0.000000	0.532883	-0.000002	
4.537000	-0.000000	-0.000000	0.000000	0.765500	0.000000	-0.232000	0.000000	0.000000	0.000000	92.368233	465.208679	-36.732388	0.030254	0.000000	-0.141827	0.000001	0.450699	-0.000003	
4.538000	-0.000000	-0.000000	0.000000	0.765500	0.000000	-0.232000	0.000000	0.000000	0.000000	92.029495	461.863464	-36.635021	0.029883	0.000000	-0.141395	0.000007	0.477078	0.000002	
4.539000	-0.000000	-0.000000	0.000000	0.765500	0.000000	-0.232000	0.000000	0.000000	0.000000	91.400604	458.966217	-36.496910	0.029968	0.000000	-0.141226	-0.000002	0.503992	0.000004	
4.540000	-0.000000	-0.000000	0.000000	0.765500	0.000000	-0.232000	0.000000	0.000000	0.000000	90.555283	456.118378	-36.536804	0.030436	0.000000	-0.141249	-0.000001	0.516931	0.000004	
4.541000	-0.000000	-0.000000	0.000000	0.765500	0.000000	-0.232000	0.000000	0.000000	0.000000	90.024025	453.476257	-36.807995	0.030747	0.000000	-0.141350	0.000001	0.428641	-0.000002	
4.542000	-0.000000	-0.000000	0.000000	0.765500	0.000000	-0.232000	0.000000	0.000000	0.000000	89.509209	450.283997	-36.788296	0.030471	0.000000	-0.141465	0.000001	0.368234	-0.000000	
4.543000	-0.000000	-0.000000	0.000000	0.765500	0.000000	-0.232000	0.000000	0.000000	0.000000	88.687180	447.740204	-36.662632	0.031017	0.000000	-0.141778	0.000003	0.362688	-0.000003	
4.544000	-0.000000	-0.000000	0.000000	0.765500	0.000000	-0.232000	0.000000	0.000000	0.000000	87.955780	443.729889	-36.547882	0.030529	0.000000	-0.141845	0.000007	0.314677	0.000002	
4.545000	-0.000000	-0.000000	0.000000	0.765500	0.000000	-0.232000	0.000000	0.000000	0.000000	87.225754	439.876648	-36.372154	0.029726	0.000000	-0.141663	0.000002	0.282104	-0.000002	
4.546000	-0.000000	-0.000000	0.000000	0.765500	0.000000	-0.232000	0.000000	0.000000	0.000000	86.430458	436.886078	-36.222397	0.029858	0.000000	-0.141625	0.000006	0.262548	0.000002	
4.547000	-0.000000	-0.000000	0.000000	0.765500	0.000000	-0.232000	0.000000	0.000000	0.000000	85.735001	433.531769	-36.034458	0.030038	0.000000	-0.141673	-0.000003	0.295498	-0.000004	
4.548000	-0.000000	-0.000000	0.000000	0.765500	0.000000	-0.232000	0.000000	0.000000	0.000000	85.347778	429.506256	-36.090202	0.029861	0.000000	-0.141528	0.000005	0.268325	0.000005	
4.549000	-0.000000	-0.000000	0.000000	0.765500	0.000000	-0.232000	0.000000	0.000000	0.000000	84.519272	425.650055	-36.104183	0.029346	0.000000	-0.141636	-0.000004	0.216674	0.000002	
4.550000	-0.000000	-0.000000	0.000000	0.765500	0.000000	-0.232000	0.000000	0.000000	0.000000	83.747864	422.054016	-36.045574	0.029116	0.000000	-0.141627	0.000004	0.189502	0.000003	
4.551000	-0.000000	-0.000000	0.000000	0.765500	0.000000	-0.232000	0.000000	0.000000	0.000000	82.940407	419.099060	-35.719627	0.029660	0.000000	-0.141740	0.000008	0.221634	0.000002	
4.552000	-0.000000	-0.000000	0.000000	0.765500	0.000000	-0.232000	0.000000	0.000000	0.000000	81.841286	416.096893	-35.477631	0.030084	0.000000	-0.141912	0.000001	0.140131	0.000001	
4.553000	-0.000000	-0.000000	0.000000	0.765500	0.000000	-0.232000	0.000000	0.000000	0.000000	80.804771	412.324615	-35.441727	0.029632	0.000000	-0.141550	0.000001	0.061546	0.000002	
